<?xml version="1.0" encoding="UTF-8"?>
<svg id="Layer_1" xmlns="http://www.w3.org/2000/svg" version="1.1" viewBox="0 0 1121.45 959.32">
  <!-- Generator: Adobe Illustrator 29.5.1, SVG Export Plug-In . SVG Version: 2.1.0 Build 141)  -->
  <defs>
    <style>
      .st0 {
        fill: #fff;
      }
    </style>
  </defs>
  <g>
    <path class="st0" d="M845.34,50.8c5.65,12.94,7.92,3.44,14.55,4.2,11.99,1.36,95.83,30.79,109.09,37.13,16.98,8.12,22.5,23.86,46.82,21.17l105.65,67.27-.07,10.11c-166.78,242.24-327.62,488.71-495.06,730.48-5.59,8.07-19,30.53-24.42,35.6-7.11,6.64-7.74-1.63-14-3.1.88-3.53,5.06-1.56,5.56-7.35.32-3.69-1.63-6.98-1.6-10.61-5.2-.56-3.18.02-4.03,2.93-1.32,4.51-.65,13.48-7.95,13.05,6.74-6.16-.63-12.1.06-18.88s10.59-35.82,13.41-44.41c2.6-7.9,12.24-17.63,13.75-22.6,1.31-4.34-1.49-9.36-1.11-14.75.96-13.71,11.91-30.59,11.91-45.26l5.96-.97-4.98-4.99c-4.44-.07-20.4,50.05-21.98,58.08l-6.98.75c-4.5,5.95-2.94,9.01,3.94,5.1,1.35,10.49-7.83,19.58-11.07,27.9-2.18,5.6.42,13.64-5.94,18.06l-2.98-5.99-5.97,2.01c-3.98-18.07,6.19-28.7,11.53-43.42,5.81-16.02,7.17-31.62,8.43-48.52-7.13,3.54-5.49,12.74-7.44,19.56-1.37,4.8-2.67,3.61-2.62-.61.22-19.27,9.11-41.68,10.08-59.96.21-3.98-.37-3.1-3.98-2.97l-13.92,70.69-6.05,1.3-.03,5.96,6.01-.97c-5.43,16.52-3.07,39.45-8.5,55.46-.77,2.28-3.09,4.86-5.5,5.47-2.7-8.61,4.91-27.84.91-34.01-1.48-2.28-5.3.07-5.16-6.9.15-7.59,7-14.14,4.22-23.06l-3.95,2.01-3-24.02c-2.51-4.67-6.56,4.34-9.01,4.03l-2.04-33.97-5.97,1.99c2.55-6.88,5.87-11.77,3.77-19.75-6.48-4.15-6.66,1.5-9.72,2.68-2.04.79-5.6-1.53-6.06-.96-.92,1.14,1.95,6.65-1.98,6.02-3.26-13.32-2.58-31.97-6.04-44.61-.58-2.13-3.71-.57-4.01-2.36l4.01-.97c1.68-3.21-1.56-28-4.99-31.99l-1.01,7.98c-1.96-.02-2.95-1.79-3.48-3.5-5.19-16.81-11.46-66.77-12.57-85.4-.13-2.18-1.3-7.57,2.04-7.03,11.08,21.04,16.88,1.85,19.53-11.5.77-3.89,4.98-23.89-2.54-18.53l-5,22.03c-8.06-1.44-14.43-10.29-17.38-17.58-10.4-25.67-1.88-58.35-5.09-82.85-1.01-7.68-5.5-14.49-6.92-21.07-2.54-11.73-3.99-23.66-6.6-35.38l6.01.97c-.6-7.66,4.33-18.15,4.13-25.11-.15-5.02-9.39-20.21-8.09-31.78,1.05-9.4,2.61-16.89,1.78-27.84-.95-12.47-7.09-29.45.47-40.01,2.66-3.72,7.21-1.86,5.73-7.15-8.82,2.35-11.7-13.6-13.02-14.03-5.46-1.81-3.81,15.6-10.97,13.99l1.06-16.1c-9.48-2.78-11.06-7.2-14.01-15.92-5.18-15.29-9.24-35.94-11.07-51.9-3.41-.37-2.17,6.87-2.07,9.07.25,5.67,1.86,10.48,2.17,15.84.13,2.18,1.29,7.58-2.06,7.05-.58-10.6-3.66-22.58-4.19-32.98-1.56-30.33-2.5-60.81-6.08-91.68-1.93-16.68-5.62-33.5-7.78-50.19,10.57,2.05,30.97-18.9,36.97-19,4.72-.08,16.66,5.33,15.09,11.97,3.42,2.5,14.4-7.14,17.05-9.94l2.6.34c.83,6.02,17.25,6.72,21.13,3.82l11.19-28.18-13.98-2.02,4.15-12.97c-.76-5.01-9.1-4.37-6.16-13.02-8.35-2.48-6.22,4.14-11.97,4.01l-3.18-8.01c-9.28,1.71-13.09,2.31-18.83,10.01.14-2.93-.67-8.61-4.99-7.98-6.54.95,2.63,7.57.95,9.98l-7.97.98,7.95,6.02c-7.49,5.11-7.72,10.92-9.96,18.97l9.02-3.89c14.37,21.21-14.37,11.13-23.98,3.86l-4.35,8.18-12.67-2.14c-1.29,9.41-1.72,11.48,3.98,18.96l-11.95,5.03-4.02-17.98,5.96,5.98-.22-13.79-7.88-1.47c.1-14.9-13.33-35.59,4.12-43.72l-3.98-2.96,49.99-8,1,5.94c3.75-4.97,9.31-4.24,14.99-3.98l-7.98-3.96c6.2.85,14.95-1.32,20.62.02,1.66.39.67,4.05,4.29,4.18,5.32.19,11.31-3.27,17.07-2.24l-13.98-3.96c12.42-1.05,22.87.52,34.58,4.38,3.49,1.15,7.47,5.53,10.09,5.28s6.76-4.62,10.22-5.78c18.6-6.24,105.11-1.64,127.22,2.99,9.55,2,20.5,10.42,27.07,11.09,7.03.71,11.86-4.46,19.28-3.61,37.52,4.31,87.68,30.9,127,36.15ZM657.86,34.29c-21.91,9.58-5.4-11.74-21.13-19.92-2.67-.59-14.14,10.58-3.16,17.23,2.59,1.57,5.14,2.95,8.31,2.7-6.14,10.4-2.19,17.52,5.97,5.97l.03,8.01,9.11-1.89.87-12.1ZM537.86,601.92c1.28-55.52,1.92-111.07,4.26-166.64,1.2-28.39,5.21-56.8,3.84-86.27s-7.52-54.87-6.06-83.85c.73-14.63,6-33.82,4.98-48.06-.35-4.94-4.04-8.64-4.41-12.19-3.88-37.67,5.38-100.02,7-139.65l-3.61-38.98c-4.95,4.05-9.63,21.2-9.81,27.17-.12,3.85,1.96,7.63,1.93,11.73-.24,27.09,3.92,73.74-.18,97.93-.4,2.37-1.19,4.73-3.9,5.08l-.03-27.97c-3.73-.21-4.15-.96-4.06,3.03,1,42.62-.28,85.3-.02,127.96.07,11.27-.01,22.6,0,33.81.02,14.44-.6,28.86,2.1,43.05l3.99-2.98c-.69,24.06-1.56,47.94-1.93,72.03-.5,32.84-1.22,66.66-.16,99.94.73,23.07,6.88,48.43,3.54,71.39-1.11,7.6-4.8,5.7-5.45,11.44l7.98,2.02ZM681.89,56.26c6.89-6.58,8.45-20.7,9.96-29.98-9.31,5.5-8.92,20.29-9.96,29.98ZM527.85,90.23c2.7-12.6,2.64-26.11,1.47-38.9-.57-6.25-.2-18.15-5.43-21.05,2.3,7.06-6.97,16.39-7.52,19.23-.64,3.25,3.88,8.2-2.46,11.75l9.89,3.07c.26,4.22-.26,8.44.32,12.68.42,3.04.98,12.05,3.73,13.22ZM441.86,48.28h-5.98v3.98h5.98v-3.98ZM641.86,54.27c-1.15-1.15-5.95,1.66-5.95,2.99,0,5.53,8.97.03,5.95-2.99ZM789.88,68.25c8.45,1.52,11.05-6.74,4.96-11.96l-4.96,11.96ZM585.87,76.24l-2.01-11.97h-1.96s0,11.97,0,11.97h3.98ZM809.89,164.2c3.99-4.45,8.41-12.58,10.95-18.01,11.27-24.12,21.01-52.56,29.01-77.93-13.05,14.51-21.24,38.15-28.06,56.89-4.47,12.3-9.31,26.25-11.9,39.05ZM685.87,80.26c-5.04-1.66-4.92,5.05-5.12,7.98-.23,3.41-1.88,5.31,2.14,7.99l2.98-15.97ZM529.87,92.24c-7.01-1.58-3.13,6.92-4.1,11.09l4.1,26.89v-37.98ZM821.89,112.23c5-3.28,7.34-12.34,7.96-17.99-5,3.28-7.34,12.34-7.96,17.99ZM915.89,104.23l4.09-5-3.12-4.99-.97,9.98ZM475.86,98.25h-5.98v3.98h5.98v-3.98ZM885.88,106.22c3.86,3.86,12.35-6.35,4.96-7.97-4.21-.93-6.41,6.52-4.96,7.97ZM919.88,114.22c14.78-2.81,4.22-16.08.3-4.68-.52,1.52-.34,3.12-.3,4.68ZM425.86,106.24c-4.94-.56-10.53-.12-9.98,5.98l9.99-2.01v-3.97ZM863.87,106.25l-11.98,1.95,7.96,6.01,4.03-7.96ZM435.86,126.23l-.98-13.99c-4.14,3.56-5.51,8.7-5,13.97l5.98.02ZM563.88,136.2c6.4.95,10.82-3.77,9.97-9.98-1.93.82-12.72,7.48-9.97,9.98ZM433.87,152.19l-3.97-17.96c-1.7,4.02-4.12,18.14,3.97,17.96ZM949.89,192.18c13.3-11.32,20.9-27.52,25.96-43.97l-9.58,11.39-16.38,32.58ZM433.86,156.19c-8.54-1.43.13,11.35-1.97,16,7.07-2.62.53-10.65,1.97-16ZM628.32,511.53c-2.15-4.09,7.76-21.44,9.09-26.98,3.2-13.32,3.02-33.16,4.55-47.4,1.1-10.3.2-16.54.9-24.09.58-6.27,8.67-22.89,10.46-32.53,3.12-16.78,2.1-32.94,3.18-49.17.4-6.1,6.02-15.29,7.2-22.41,3.13-18.93,1.98-42.84,2.65-61.75.46-13.08,3.7-28.04,1.48-41.01l-9,27.95c-34.91,144.4-38.89,297.2-65.26,442.46-1.59,8.76-9.29,21.32-9.38,22.59-.13,1.82,3.76,7.15,3.85,13.67.25,17.5-6.76,30.82-2.15,49.97.73,3.03-1.4,3.51,3.95,3.01,2-6.03-.2-12.95.49-18.34,6-46.99,15.01-99.36,24.15-145.93.68-3.44,1.74-12.41,3.16-14.47,1.53-2.22,5.76-.73,6.2-1.17.99-.97-2.03-8.24-2.03-10.97.01-9.26.65-24.39,2.53-33.49,1.54-7.46,7.76-18.7,7.67-26.62-.04-3.66-3.39-2.69-3.72-3.31ZM557.87,216.18c-13.42,1.39-12.52,11.56-9.88,21.86l9-1.76.88-20.1ZM549.88,250.13c1.23,1.23,7.95-.92,7.95-2.99-.02-7.74-13.12-2.18-7.95,2.99ZM779.85,258.12c.58-.62,2.5-8.9,2.01-9.97-2.66-1.1-4.73,8.32-3.96,9.97.64-.1,1.7.27,1.96,0ZM517.86,262.15c-3.17-3.17-9.15,2.81-5.98,5.98s9.15-2.81,5.98-5.98ZM651.59,711.61c.24-.35-2-4.86-1.4-8.19,1.93-10.74,9.17-26.45,12.52-37.5,7.61-25.09,14.26-50.74,22.59-75.56,3.41-10.16,11.2-22.25,13.93-32.05,5.16-18.58,4.32-32.09,12.23-51.74,8.01-19.89,22.15-47.17,26-68.05,1.34-7.25-2.12-12.02-1.21-18.94,2.09-15.78,13.89-48,19.04-65.08,5.62-18.63,14.57-36.56,16.56-56.38l-22.02,50.92c-50.17,132.32-78.02,274.98-123.45,408.34-2.3,6.74-6.54,8.98-6.56,9.59-.06,2.78,2.52,6.86,2.2,11.82s-9.46,17.91-.18,17.01l22.95-78.02c-.04-4.19,6.24-5.39,6.79-6.18ZM497.86,310.1c1.49-1.32-3.85-11.94-7.98-9.97-2.45,5.46,4.05,13.47,7.98,9.97ZM809.35,501.62c2.05-1.59,3.62-17.12,6.96-22.19,2.09-3.18,9.3-6.7,9.24-8.4-.03-.89-2.91-2.76-3.3-4.51-1.23-5.59,13.22-26.03,16.43-32.68,12.64-26.21,24.56-53.46,36.21-79.74,6.02-13.6,14.26-27.53,16.96-41.99-9.6,8.55-16.25,23.02-22.3,34.65-55.42,106.59-109.11,221.11-159.39,330.4-15.77,34.28-32.08,69.11-44.26,104.65l93.96-181.88,4,7.99c1.91-10.71,3.3-24.97,8.47-34.53,3.23-5.98,10.36-12.66,14.36-19.63,6.26-10.89,10.88-29.48,17.47-38.58,1.48-2.05,3.14-3.16,5.7-3.25,3.11-4.39-11.4-6.59-4.49-9.88.76-.36,2.91.4,3.98-.44ZM547.88,322.09c1.29,1.29,11.1-.06,9.98-4.96l-3.07-3.02-6.72,2.21c-.43.66-.39,5.57-.19,5.77ZM683.86,334.08c-.03-7.33-5.95-7.33-5.98,0h5.98ZM476.9,332.1l-2.99,2.99,4.93,2.99,2.99-2.99-4.93-2.99ZM567.84,334.11c-4.93-3.6-15.8,8.7-4.64,11.68,8.81,2.35,6.6-10.25,4.64-11.68ZM767.86,378.07c-7.33.03-7.33,5.94,0,5.98v-5.98ZM551.86,430.04h-5.98c.03,7.33,5.95,7.33,5.98,0ZM843.88,436.02c1.15,1.15,5.95-1.66,5.95-2.99,0-5.53-8.97-.03-5.95,2.99ZM545.86,587.93c-4.68-.28-3.53-.66-3.99,2.96-2.93,22.91.47,55.73.09,80.07-.19,12.2-3.36,27.59-3.33,40.23.07,23.97,4.24,50.41,5.27,74.62,4.73-2.81,5.54-15.52,5.96-21.01,2-25.95,5.02-51.88,6.1-77.85.76-18.27-.71-36.77-.1-55.04-2.74-.24-3.31,7.68-3.5,9.64-.45,4.63,2.96,13.82-2.46,16.32l-4.03-69.95ZM530.9,603.98c-4.87,2.42-13.43,3.81-5.99,9.92,2.53.52,12.18-7.22,5.99-9.92ZM683.89,615.92c4.55-1.2,4.16-6.27,3.96-9.99-4.55,1.2-4.16,6.27-3.96,9.99ZM527.77,618.05l-13.88-2.13,4.02,11.99,8.75-3.84,1.12-6.02ZM575.5,639.57c1.89-4.68-.53-11.35-6.6-9.64l-3.04,9.98-5.97-2v7.98s15.61-6.32,15.61-6.32ZM745.88,631.92c-1.24,1.33.93,7.92,2.99,7.95,5.96.06.56-11.75-2.99-7.95ZM757.86,671.89c-3.86-3.86-12.35,6.35-4.96,7.97,4.21.93,6.41-6.52,4.96-7.97ZM561.86,771.83c-1.33-1.24-7.93.93-7.95,2.99-.06,5.96,11.76.56,7.95-2.99ZM641.89,847.79c.62-7.57,3.34-13.79,6.38-20.61.66-1.49,4.08-6.49-.41-4.42-10.73,18.11-18.86,36.55-25.62,56.38-1.08,3.16-4.14,3.12.64,6.59,5.68-7.94,12.41-15.52,13.01-25.96l2.97,3.98c6.71-4.81,8.08-9.8,6.99-18l-3.97,2.03ZM613.86,895.75c-1.35-1.48-12.54,9.25-12.91,9.98-2.85,5.64-3.13,19.44-9.08,25.97,11.25-1.86,12.7-10.05,14.46-19.64,9.69-.16,3.54-1.88,4.06-7.08.33-3.31,4.33-5.42,3.47-9.22Z"/>
    <path class="st0" d="M93.87,112.23c2.32-.83,5.22-5.05,11.14-5.87s12.69.26,18.86-.11c-8.11,5.64-1,24.06-9.23,25.51-2.66.47-6.5-2.29-9.43-1.71-1.87.36-1.82,4.18-3.31,5.1-8.06,4.97-3.84-2.55-13.11,8.96-5.54,6.88-15.77-.08-22.88,3.12-6.73,3.03-5.69,14.36-15.13,14.82l1.12,30.14h-8.01s-2,15.95-2,15.95l8.82,2.11,4.2-6.06,3.83.11c4.92,9.26,16.48,11.99,17.07,23.11.53,9.85-4.58,14.18,5.18,24.62,11.98,12.81,8.94-12.35,2.94-18.89l9.96-3-1.81-7.71c8.42-1.84,9.04-8.38,12.48-13.6,1.46-2.21,8.74-2.98,4.31-8.66h-9c-.19-24.97,12.07-7.01,16.81-8.11l5.23-9.86c5.05-1.69,4.98,5.07,6.28,5.79,1.14.63,4.18-1.67,7.53-.77,9.02,2.45,11.02,10.09,14.18,11.94,2.92,1.7,7.08.36,9.98,2.02.95.54,10.78,16.32,11.82,18.35,2.29,4.44-.28,7.68,1.01,12.63,7.46,28.6,32.11,70.07,44.72,97.36,58.08,125.73,115.75,251.68,174.69,377.11,20.58,43.79,47.42,90.36,65.52,134.4,8.5,20.68,8.73,42,28.22,56.72.31-5.84-3.56-10.47-5.12-15.86-.55-1.91-2.52-6.62,1.11-6.11,4.19,6.8,5.83,14.88,9.1,21.99,1.38,3.01-.28,4.93,4.91,3.97-3.95-15.97-13.61-30.45-16.01-46.97-.23-1.56-.63-7.27,2-3.95l6.05,14.95,5.95-3.99c4.89,16.06,10.03,30.76,8.04,47.97l5.05-.18c1.74,14.14,6.4,27.89,14.95,39.14-12.9,6.41-22.63,11.06-28.02-4.98.66.44,3.75,2.3,3.98,2l-5.96-9.99c-.11,2.79,1.12,5.43,1.98,7.99-4.45-2.98-12.08-15.95-15.66-21.33-27.86-41.87-52.31-86.13-79.51-128.41C281.38,611.59,155.23,433.99,47.51,245.51c-6.35-11.11-7.14-13.09-14.54-23.45-8.08-11.32-14.99-23.58-23.09-34.9l1,11c-12.67-12.71-15.47-26.58-1.98-39.93,18.85-18.66,59.95-37.05,84.97-46-.91.46-5.01,6.68-3.98,7.99l7.97-5.02v-2.96c-1.23.15-3.33-.34-3.99-.01ZM77.87,124.24c-2.73-.93-13.78,4.53-12,5.96,2.73.93,13.78-4.53,12-5.96ZM35.89,174.19c-.36,4.39-.63,9.74,4.95,9.98l2.99-2.99-7.94-7ZM135.87,362.05l-7.98-11.97c-.6,6.51-.66,13.52,7.98,11.97ZM143.86,372.08c-6.42-5.65-9.03,10.73-1.98,5,1.52-1.23,2.99-4.11,1.98-5ZM151.86,380.07h-7.98c-.14,6.67-1.81,9.44,5.78,7.78l2.2-7.78ZM175.88,412.05c-1.29,1.3.06,11.08,4.96,9.97,7.67-1.73-.39-14.54-4.96-9.97ZM223.86,422.05c-3.78-.64-6.65,2.34-5.97,5.99l5.98-2.02v-3.96ZM239.88,438.02c4.83.94,5.55-3.98,7.94-7-4.95-5.53-9.85-.27-7.94,7ZM277.66,592.13c-10.87-3.12-4.15,10,2.2,9.79l-2.2-9.79ZM331.85,681.88c-.66-5.2-5.58-11.39-9.96-13.99.66,5.2,5.58,11.39,9.96,13.99ZM367.87,679.86l-5.99.03,2,17.97,8.01-3.04c-2.56-5.14-5.2-8.76-4.02-14.96ZM499.85,935.72c-1.04-10.29-7.15-24.27-13.96-31.98,2.47,10.19,6.35,24.8,13.96,31.98Z"/>
    <path class="st0" d="M393.87,20.3l-2.02,15.97-5.97-3.98c-2.81,3.64,8.01,35.13,7.92,43.18-.07,5.7-7.64,2.56-5.91,8.77l6.09-1.16c2.85,2.06,7.92,36.54,8.97,43.07.58,3.58-1.36,6.86-.72,10.53,1.24,7.15,9.42,15.92,9.62,16.9,6.86,32.41,5.85,78.31,10.28,113.3,20.2,159.64,50.94,322.92,78.33,481.37,3.46,20.02,9.19,40.63,11.15,60.81.23,2.4,2.12,10.68-1.72,10.72.37-1.75-1.51-18.61-6-13.98l-6.04,23.98c-2.72.59-2.18-2.06-2.96-3.98-13.52-33.3-15.75-73.58-27.04-107.93l-2,9.98c-1.76,2.39-6.85-10.58-6.1-14.73.36-1.99,6.3-.05,4.13-5.23l-7.13-1.87-8.88-34.13,5.99-2.98c-11.53-5.16-11.94-10.66-11.97-23l11.97,3.99v-7.99c-5.76,3.98-5.76-4.88-9.16-5.74-1.81-.46-5.91,2.54-6.81,1.76-2.36-2.07-1.66-26.2-2.9-32.11-1.77-8.45-7.28-11.39-10.14-17.85-4.55-10.28-12.43-42.37-12.81-53.18-.14-3.95,2.53-8.07,1.98-11.57-.31-1.93-6.54-.18-4.14-5.24l6.01-.02c-1.54-6.49-3.31-14.31-1.97-20.96.9-4.45,4.9-5.73,5.68-8.44,1.96-6.8-3.7-7.68-5.21-12.09-1.99-5.82-1.3-16.45-3.47-20.65-.45-.87-14.94-3.04-11.05-13.82l-7.96,2.13c-2.41,16.77,13.32,21.29,9.95,37.85-2.98-.47-3.74-3.75-5.02-5.95-8.57-14.78-8.74-24.79-11.89-42.1-.35-1.94-3.05-4.38-3.03-4.92.05-1.17,4.23-4.06,5.91-2.97.73.47.7,7.65,6.03,5.97l-4.99-17.94c-4.01,3.67-6.69,9.05-12.99,7.96,1.48-10.81-5.72-17.86-9.01-25.99-12.64-31.29-26.02-63.77-35.61-96.33-3.71-12.61-14.41-47.95-15.32-58.82-.41-4.86,2.45-11.12,1.75-13.46-.75-2.52-5.34-3.06-7.36-6.74-5.08-9.26-11.62-46.51-9.43-56.77.71-3.32,6.47-7.63,6.25-10.68-.52-7.29-5.01-13.99-3.15-25.9,1.12-7.19,3.78-11.44,9.85-5.13l-.11-10.84c8.4-6.07,17.32-5.66,28.04-7.23-2.76-8.25,3.86-14.96,4.27-20.87.48-7.05-5.28-13.97-2.73-20.41,2.67-6.77,11.69-7.66,12.6-14.6l9.96,8.77,3.96,1.21,6.05-13.97c-7.39.68-18.38-5.95-18.03-14l-4.1,1.23c-3.66,9.15-3.37,17.25-15.87,14.74l4-5.95-13.99-4.02-.16,5.78c-11.02-1.89-8.37,6.19-12.52,11.55-1.2,1.55-4.49,2.64-6.49,4.53-5.25,4.95.45,7.83-12.72,4.22l-4.11,8.97-6.02-2.17c-3.25,1.57-8.34,20.91-14.5,10.57-10.58-17.78-11.97-22.55,1.74-39.34l7.6,1.9c8.58-9.53,29.61-7.88,41.78-10.74,2.94-.69,5.65-3.44,9.34-4.32,10.3-2.44,20.75-4.65,31.02-6.96l-1,4h3.98c3.48-13.5,18.31-2.57,28.04-3.97ZM385.86,72.24c.72-12.09-11.97-9.6-2.96-.01h2.96ZM375.86,110.22l-2.98-11.97-3,11.98h5.98ZM321.88,132.21l13.03-15.94c3.45-6.47-7.38-9.44-11.53.48-2.14,5.12-1.64,10.12-1.51,15.46ZM313.86,132.23c-12.36-2.12-2.49,8.66,0,5.98v-5.98ZM321.69,140.37c-12.03-2.18-3.32,9.75,2.16,11.83l-2.16-11.83ZM341.85,238.15c-.07-11.6-3.01-29.49-13.96-35.98-1.21,6.72,5.14,10.69,7.01,15.96,2.19,6.19.65,16.3,6.95,20.01ZM411.86,204.18c-3.54-3.81-8.95,8-2.99,7.95,2.06-.02,4.23-6.62,2.99-7.95ZM315.86,212.18h-3.98c-.48,3.68-.08,5.82,3,7.97l.98-7.97ZM408.9,270.14c-4.9,1.11-3.47,11.2,1.94,9.97,4.9-1.11,3.47-11.2-1.94-9.97ZM351.86,276.14h-3.98c-.48,3.68-.08,5.82,3,7.97l.98-7.97ZM355.86,290.13h-9.98c-1.27,10.99,11.25,10.99,9.98,0ZM381.86,320.09c1.24-1.33-.93-7.92-2.99-7.95-5.96-.06-.56,11.75,2.99,7.95ZM378.9,334.1c-4.58,1.01-3.18,9.98-.03,9.94,4.23-.05,7.24-11.54.03-9.94ZM421.86,344.07c-4.31,3.09-17.52-1.08-16,6,7.67-2.08,7.35,3.3,13.05,5.6l4.55-4.89-1.6-6.71ZM389.87,350.1c2.12,11.48,12.4,5.5,9.98-4.02l-9.98,4.02ZM383.86,356.07l-5.98.02c-.31,3.97-.49,7.55,3.02,9.96h2.96s0-9.98,0-9.98ZM381.86,372.08l-12.1,3.32c-.42,5.13,2.24,23.07,7.36,24.54,7.28,2.09,13.99-10.85.75-9.92l3.99-17.93ZM399.86,404.04c3.86-3.86-6.35-12.35-7.98-4.96-.93,4.21,6.52,6.41,7.98,4.96ZM447.84,575.95c-9.93-.12-.47,7.42.95,10.16,2.4,4.65-.59,10.13,9.08,9.81l-10.03-19.96ZM455.86,605.93l-9.99,2.01v3.97s9.99-2.02,9.99-2.02v-3.96Z"/>
    <path class="st0" d="M259.86,50.27c-4.73,14.19,3.13,24.08,2,37.98-8.26-5.67-8.79,8.45-15.97,7.99.49-6.08-1.82-8.04-7.78-8.26l-.66-7.29c-7.15-3.89-13.73,1.57-19.56-4.45l-3.05,9.97-2.99-7.97c-6.14,8.96-5.35,3.75-10.63,4.63-3.07.51-5.31,4.77-11.06,1.52-2.94,8.41-12.3,16.25-4.41,24.97,2.55,2.82,26.6,7.28,30.96,6.85,5.22-.52,8.73-6.02,12.14-5.96,3.08.05,6.86,4.92,11.03,4.01l.12,15.91c7.28-2.16,11.34-.6,13.96,7.02.13,8.15-14.82,1.54-14.07,11l10-1.05,1.97,5.02-6.07,4.97c0,1.59,4.68,9.01,6,10.14,3.94,3.39,7.28,2.02,9.48,3.55,3.22,2.24,7.58,10.15,10.59,12.32,9.95,7.16,10.87.95,17.57,16.47,19.42,44.94,27.61,96.33,40.98,142.93,13.84,48.25,32.11,95.08,46.94,142.98,21.2,68.52,41.16,138.07,61.96,205.91,7.33,23.93,35.34,93.58,34.78,113.42-.21,7.49-6.44,10.19-2.19,16.92l-5.87.12,5.84,21.87c-5.16,1.02-3.5-1.08-5.01-3.89-14.34-26.68-24.43-68.24-40.14-91.88-18.47-27.81-26.25-47.97-34.87-80.76-.46-1.76-4.1-1.15-4.05-2.36.12-3.09,3.7-4.61,3.93-7.86.28-4.08-3.96-10.09-3.71-14.23.22-3.78,4.66-4.85,3.85-8.86-12.41,1.5-9.59-5.52-13.18-11.81-7.48-13.12-5.23-19.19-10.92-33.12,3.22,1.27,5.7-14.08,5.65-15.65-.77-21.26-25.91-34.72-33.58-53.34l-3.89.11c.54,3.93-.85,5.65-3.04,1.84-3.82-6.66-6.09-27.27-8.91-29.1-1.82-1.18-8.37,3.54-11.26-.76-1.83-2.58.27-11.37,1.3-14.55.24-.73,8.26-5.98-.1-12.6-3.48-2.76-6.41,4.12-10.03,3.07-.77-4.06-6.6-14.67-3.86-17.88,1.2-1.41,6.24,2.54,5.84-3.08-.53-7.4-7.92-8.89-8.03-10.21-.12-1.54,2.12-4.27,1.61-7.32-.77-4.57-5.89-13.2-5.73-16.37.05-1.02,6.33-.8,4.12-6.08l-13.05-9.05-.94-17.94-7.97,5.98c1.18-7.88-5.65-8.25-8.84-12.16-7.99-9.76-6.8-22.59-14.4-33.58-3.46-5-9.93-8.52-12.24-13.75-3.03-6.85-4.85-50.58-19.5-46.44l-3.04,4.89c1.5,10.28,15.47,11.01,13.99,23.09-16.05-1.27-13.9-15.27-19.15-25.82-8.39-16.85-21.55-31.66-28.54-49.43-4.29-10.92-6.32-16.66-11.14-26.85-1.94-4.1-11.71-25.25-9.15-27.81l11.92,3.12c7.42,1.87,3.04-21.97,3.04-26.19,0-3.1,2.43-5.79,2.71-8.43,1.01-9.43-26.74-25.26-25.54-39.62l-5.15-.98-5.02,3.17,4.02,14.94c-7.01,2.9-20.08-5.07-21.75-11.41-1.24-4.72,4.02-8.01,3.84-11.56-.06-1.2-6.29-.26-4.1-4.99l99.93-41.07,32.05-4.93ZM205.86,230.15c.64-3.78-2.34-6.64-5.99-5.97l2.02,5.97h3.97ZM321.86,374.07h-5.98v7.98h5.98v-7.98ZM341.86,460.05l-10.04-3.17c-4.93,4.8-2.83,9.26-1.91,15.13,4.29,3.7,13.14-10.32,11.95-11.96ZM335.86,504h-2.96s-2.99,2.99-2.99,2.99l4.97,4.99.98-7.98ZM385.86,615.91c2.04-2.01-3.9-8.02-5.98-5.98s3.9,8.02,5.98,5.98ZM425.89,693.88c-1.53,6.5,10.72,11.2,11.98,4.96,1.16-5.76-9.36-3.55-11.98-4.96ZM441.86,739.85c-4.94-.54-10.53-.14-9.98,5.98h10s-.02-5.98-.02-5.98Z"/>
    <path class="st0" d="M565.86,943.74c.07,2.55-10.06,3.43-11.54,3.43-8.3,0-15.49-3.43-24.44.52l12.98-9.97c2,.86,3.11,7.56,8.31,7.7,10.39.27-3.76-20.33-3.4-24.53l9.11-7.13c8.07,8.53-7.13,25.74,8.99,29.97Z"/>
    <path class="st0" d="M351.85,587.92l-15.96-33.97c1.69,3.55,12.41,10.82,13,11.88.55.98.06,17.92,2.96,22.08Z"/>
    <path class="st0" d="M575.86,913.74l-2.01,14-5.06-1.82c-.69-.06-1.69,7.78-4.91,3.79-1.92-2.39,5.36-19.72,11.98-15.97Z"/>
    <path class="st0" d="M531.88,929.73v-10.01s3.69,1.71,3.69,1.71l3.3-5.66c7.36,8.51,2.5,14.68-6.99,13.96Z"/>
    <path class="st0" d="M195.85,270.13l-11.96-23.98c7.65,4.62,11.1,15.51,11.96,23.98Z"/>
    <path class="st0" d="M541.87,857.78l-2,15.99-5.98-.03c-1.01-.98,1.69-17.79,7.98-15.97Z"/>
    <path class="st0" d="M233.85,326.09c-2.39-.01-4.28-5.82-5.11-7.87-.59-1.47-5.16-5.03.16-6.1,6.15-1.24,5.3,10.98,4.95,13.97Z"/>
    <path class="st0" d="M405.86,499.98h-5.98s0-7.98,0-7.98h2.96c3.14,2.11,3.49,4.29,3.02,7.98Z"/>
    <rect class="st0" x="517.88" y="877.77" width="3.98" height="7.97"/>
    <path class="st0" d="M517.85,923.72c-1.33,2.81-5.28-9-3.96-11.97,1.29-2.74,5.5,8.71,3.96,11.97Z"/>
  </g>
  <path class="st0" d="M517.6,205.16"/>
</svg>